<?xml version="1.0" encoding="utf-8"?>
<!-- Generator: Adobe Illustrator 19.2.0, SVG Export Plug-In . SVG Version: 6.00 Build 0)  -->
<svg version="1.0" id="Layer_1" xmlns="http://www.w3.org/2000/svg" xmlns:xlink="http://www.w3.org/1999/xlink" x="0px" y="0px"
	 viewBox="0 0 14.6 9.4" enable-background="new 0 0 14.6 9.4" xml:space="preserve">
<g id="Layer_9">
	<path fill="#AE2C00" d="M9.7,3.5c0,0,0.4-0.2,0.8-0.7s0.6-0.4,0.6-0.4s0.3-0.2,0.4-0.6c0.1-0.3,0.5-0.6,0.7-0.9
		c0.2-0.3,1.1-1.2,1.8-0.3s0.1,1.5,0.1,1.5s-0.6,0.3-1.2,0.1C12.2,2.1,12,2.4,12,2.4s-0.3,0-0.4,0.2S11.3,2.9,11.1,3
		c-0.2,0,0-0.2,0-0.2l-0.6,0.4L9.7,3.5z"/>
	<path fill="#AE2C00" d="M13.1,2.3c0,0,0,0.4-0.7,0.5c0,0,0.5-0.2,0.4-0.5C12.5,2,13.1,2.3,13.1,2.3L13.1,2.3"/>
	<path fill="#AE2C00" d="M12.5,2.3c0,0-0.1,0.8-1.1,0.8c0,0,0.8-0.2,0.6-0.8C11.8,1.6,12.5,2.3,12.5,2.3L12.5,2.3"/>
	<path fill="#AE2C00" d="M12.6,1c0,0-0.4-0.3-1.1,0.3c0,0,0.6-0.3,0.7,0.1S12.6,1,12.6,1L12.6,1"/>
	<path fill="#AE2C00" d="M12.2,1.4c0,0-0.6-0.2-1.8,0.9c0,0,1.1-0.7,1.2-0.3S12.2,1.4,12.2,1.4L12.2,1.4"/>
	<path fill="#BF4400" d="M13.6,1.8c-0.6,0.3-1.2,0.4-1.4,0.1c-0.2-0.3,0.1-0.8,0.7-1.2C13.5,0.4,14.2,1.5,13.6,1.8z"/>
</g>
<g id="Teeth">
	<g id="Upper_Teeth">
		<path fill="#939393" d="M8.9,1.9L8.8,1.6L8.6,1.9C8.5,1.9,8.7,1.7,8.9,1.9z"/>
		<path fill="#939393" d="M8.8,2.2c0,0,0-0.1-0.2-0.3L8.4,2.1C8.4,2.1,8.6,2.1,8.8,2.2z"/>
		<path fill="#939393" d="M8.7,2.6c0,0,0-0.2-0.3-0.4L8.2,2.5C8.2,2.5,8.4,2.4,8.7,2.6z"/>
		<path fill="#939393" d="M8.5,3.1c0,0-0.1-0.3-0.4-0.5L7.9,2.9C7.9,2.9,8.2,2.8,8.5,3.1z"/>
		<path fill="#939393" d="M8.2,3.3c0,0-0.1-0.2-0.3-0.3L7.8,3.3C7.7,3.3,7.9,3.1,8.2,3.3z"/>
		<path fill="#939393" d="M7.9,3.6c0,0,0-0.1-0.2-0.3L7.6,3.5C7.6,3.5,7.7,3.5,7.9,3.6z"/>
		<path fill="#939393" d="M7.7,3.8c0,0,0-0.1-0.1-0.2L7.5,3.8C7.5,3.8,7.6,3.7,7.7,3.8z"/>
	</g>
	<g id="Lower_Teeth">
		<path fill="#939393" d="M8.7,5.3l0-0.1c0,0,0.1,0.2,0.2,0.1C9,5.3,8.7,5.3,8.7,5.3z"/>
		<path fill="#939393" d="M9.1,5.3c0,0,0-0.1-0.1-0.2c0,0,0.1,0.2,0,0.2S9.1,5.3,9.1,5.3z"/>
		<path fill="#939393" d="M9.4,5.2c0,0-0.1-0.3-0.2-0.4c0,0,0.1,0.3,0,0.4C9.1,5.3,9.4,5.2,9.4,5.2z"/>
		<path fill="#939393" d="M9.8,5.1c0,0-0.2-0.2-0.2-0.3c0,0,0.1,0.3,0,0.3S9.8,5.1,9.8,5.1z"/>
		<path fill="#939393" d="M10,5.1L9.9,4.9C9.9,4.9,9.9,5.2,10,5.1C10,5.1,10,5.1,10,5.1z"/>
		<path fill="#939393" d="M10.3,5.1l-0.2-0.2c0,0,0.1,0.1,0,0.1C10.1,5.1,10.3,5.1,10.3,5.1z"/>
	</g>
</g>
<g id="Head_Outline_1_">
	<path id="Head_Outline" fill="#5B1A04" d="M5.3,8.6c0,0,1.1-2.5,1.2-2.4C6.6,6.4,6.2,8.7,8,7.8c0,0-1.2,0.5-0.8-1.3
		c0,0,0,0.4,0.8,0.3c0.8-0.2,0.7-0.5,0.7-0.5s0.6-0.8,2.9-1c0,0,0.2-0.9,0-1.3s0.1,1.4-1.8,1c0,0-1.2,0.5-2.2-0.1s1.8-3.8,1.8-3.8
		h0.8c0,0,0.1-0.8-1.9-0.7c0,0,0.6,0.8-0.6,0.8c0,0-0.2,1.2-1.3,1.9S4.6,3.8,4.6,3.8S2,4,2,4.5c0,0,1.9-0.5,2.3,0.3
		c0,0-0.5-0.3-1.4-0.1S2,4.3,0,5.7c0,0,1.3-0.7,2.6-0.2s1.1,0.9,1.1,0.9S2.4,6.6,1.8,8.2c0,0,1.8-1.1,2.4-1c0,0-0.9,1.5-0.8,2
		c0,0,1.2-2.2,1.8-2C5.2,7.3,5.6,7.1,5.3,8.6z"/>
	<path fill="#5B1A04" d="M7.9,2.9c0,0-0.5,1.4-0.6,1.6c-0.1,0.2,0-1.1,0-1.1L7.9,2.9L7.9,2.9"/>
</g>
<g id="Eye">
	<ellipse transform="matrix(0.8415 -0.5403 0.5403 0.8415 -1.0206 4.0779)" fill="#F7931E" cx="6.4" cy="3.8" rx="0.4" ry="0.1"/>
	<ellipse transform="matrix(0.8415 -0.5403 0.5403 0.8415 -1.0224 4.0666)" fill="#FFFF00" cx="6.4" cy="3.8" rx="0.2" ry="0.1"/>
</g>
</svg>
